<?xml version="1.0" standalone="no"?>
<!DOCTYPE svg PUBLIC "-//W3C//DTD SVG 20010904//EN"
 "http://www.w3.org/TR/2001/REC-SVG-20010904/DTD/svg10.dtd">
<svg version="1.0" xmlns="http://www.w3.org/2000/svg"
 width="700.000000pt" height="700.000000pt" viewBox="0 0 700.000000 700.000000"
 preserveAspectRatio="xMidYMid meet">
<metadata>
Created by potrace 1.14, written by Peter Selinger 2001-2017
</metadata>
<g transform="translate(0.000000,700.000000) scale(0.100000,-0.100000)"
fill="#000000" stroke="none">
<path d="M3308 6995 c-2 -2 -32 -6 -68 -9 -184 -15 -412 -66 -616 -136 -112
-39 -100 -34 -286 -124 -378 -184 -703 -457 -960 -806 -235 -320 -406 -730
-468 -1120 -6 -41 -13 -85 -15 -97 -18 -115 -24 -400 -11 -533 12 -121 17
-164 21 -180 2 -8 7 -35 10 -60 7 -53 61 -278 76 -318 6 -15 12 -34 14 -43 2
-9 23 -68 48 -131 71 -180 153 -337 269 -511 32 -48 58 -90 58 -93 0 -5 1124
-1695 1143 -1719 4 -5 142 -212 307 -460 340 -512 324 -488 369 -532 97 -97
261 -144 393 -113 72 17 161 65 211 115 37 36 1817 2692 1817 2710 0 4 15 28
33 54 103 144 215 353 290 541 75 187 117 348 162 619 27 162 22 555 -10 721
-3 14 -7 41 -10 60 -21 125 -94 397 -125 465 -5 11 -19 45 -30 75 -31 79 -139
293 -190 375 -339 540 -836 933 -1422 1123 -119 39 -250 73 -333 88 -22 3 -47
8 -55 9 -9 2 -43 6 -75 10 -33 4 -69 10 -80 12 -23 6 -462 13 -467 8z m357
-1759 c219 -49 384 -152 528 -327 20 -25 37 -51 37 -58 0 -6 4 -11 9 -11 13 0
87 -167 105 -235 80 -311 -7 -629 -231 -851 -232 -230 -566 -310 -878 -212
-325 103 -561 390 -604 732 -37 308 101 622 356 808 87 64 227 129 312 145 14
2 44 8 66 13 45 9 254 6 300 -4z"/>
</g>
</svg>
